# xmcd CD database file
#
# Track frame offsets:
#	150
#	21421
#	42202
#	64636
#	77904
#	100545
#	118165
#	132261
#	167997
#	185174
#	198180
#	216252
#	234600
#
# Disc length: 3306 seconds
#
# Revision: 0
# Processed by: cddbd v1.5.2PL0 Copyright (c) Steve Scherf et al.
# Submitted via: CdAid (MTCDDB.DLL V2003.12.21)
#
DISCID=b90ce80d
DTITLE=Various Artist - O Som do Boteco Vol. 2
DYEAR=1995
DGENRE=Country
TTITLE0=Oceano - Djavan
TTITLE1=O Meu Amor - Chico Buarque
TTITLE2=Papel Machê - João Bosco e Capinan
TTITLE3=O Barquinho - Ronaldo Boscoli e Roberto Menescal
TTITLE4=Iolanda - Chico Buarque e Pablo Milanes
TTITLE5=Meu Bem Querer - Djavan
TTITLE6=Vitoriosa - Ivan Lins e Victor Martins
TTITLE7=Pout Pourri
TTITLE8=Saindo de Mim - Ivan Lins e Victor Martins
TTITLE9=José - Paulo Diniz
TTITLE10=Alguém Me Disse - Anisio Silva, Edvaldo Gouveis e Jair Amorim
TTITLE11=Sampa - Caetano Veloso
TTITLE12=Só Pra Você - Robson Ricardo e Wagner Santos
EXTD=ID3G:   2 YEAR: 1995
EXTT0=
EXTT1=
EXTT2=
EXTT3=
EXTT4=
EXTT5=
EXTT6=
EXTT7=O Meu Amor Chorou - Luiz Marçal Neto\nChega de Saudade - Tom Jobim e Vin
EXTT7=icius de Moraes\nTeco-Teco - João Roberto Kelly
EXTT8=
EXTT9=Poema Carlos Drumont de Andrade
EXTT10=
EXTT11=
EXTT12=
PLAYORDER=
